# xmcd CD database file
#
# Track frame offsets:
#	150
#	47434
#	136808
#	185472
#	223160
#	262846
#
# Disc length: 4295 seconds
#
# Revision: 0
# Processed by: cddbd v1.5.2PL0 Copyright (c) Steve Scherf et al.
# Submitted via: CDex 1.50
#
DISCID=4e10c506
DTITLE=Jacky Terrasson - Live in Münster
DYEAR=2001
DGENRE=Jazz
TTITLE0=In your own sweet way
TTITLE1=Reach
TTITLE2=In days of wine and roses
TTITLE3=The dolphin
TTITLE4=Love for sale
TTITLE5=Bootlegged encore
EXTD=YEAR: 2001
EXTT0=
EXTT1=
EXTT2=
EXTT3=
EXTT4=
EXTT5=
PLAYORDER=
